<mxfile host="app.diagrams.net" modified="2023-05-05T04:00:41.942Z" agent="Mozilla/5.0 (Windows NT 10.0; Win64; x64) AppleWebKit/537.36 (KHTML, like Gecko) Chrome/112.0.0.0 Safari/537.36" etag="n2vvVwFN95X4k4TG_4GP" version="21.2.3" type="github">
  <diagram id="C5RBs43oDa-KdzZeNtuy" name="Page-1">
    <mxGraphModel dx="1434" dy="764" grid="1" gridSize="10" guides="1" tooltips="1" connect="1" arrows="1" fold="1" page="1" pageScale="1" pageWidth="827" pageHeight="1169" math="0" shadow="0">
      <root>
        <mxCell id="WIyWlLk6GJQsqaUBKTNV-0" />
        <mxCell id="WIyWlLk6GJQsqaUBKTNV-1" parent="WIyWlLk6GJQsqaUBKTNV-0" />
        <mxCell id="bMcUbnMxHkguOas_Q9mU-8" value="点击监测链接记录数据" style="shape=umlLifeline;perimeter=lifelinePerimeter;whiteSpace=wrap;html=1;container=0;dropTarget=0;collapsible=0;recursiveResize=0;outlineConnect=0;portConstraint=eastwest;newEdgeStyle={&quot;edgeStyle&quot;:&quot;elbowEdgeStyle&quot;,&quot;elbow&quot;:&quot;vertical&quot;,&quot;curved&quot;:0,&quot;rounded&quot;:0};fontSize=13;" parent="WIyWlLk6GJQsqaUBKTNV-1" vertex="1">
          <mxGeometry x="500" y="1600" width="70" height="300" as="geometry" />
        </mxCell>
        <mxCell id="bMcUbnMxHkguOas_Q9mU-10" value="" style="html=1;points=[];perimeter=orthogonalPerimeter;outlineConnect=0;targetShapes=umlLifeline;portConstraint=eastwest;newEdgeStyle={&quot;edgeStyle&quot;:&quot;elbowEdgeStyle&quot;,&quot;elbow&quot;:&quot;vertical&quot;,&quot;curved&quot;:0,&quot;rounded&quot;:0};fontSize=13;" parent="bMcUbnMxHkguOas_Q9mU-8" vertex="1">
          <mxGeometry x="30" y="70" width="10" height="190" as="geometry" />
        </mxCell>
        <mxCell id="bMcUbnMxHkguOas_Q9mU-43" value="" style="edgeStyle=orthogonalEdgeStyle;rounded=0;orthogonalLoop=1;jettySize=auto;html=1;fontSize=13;" parent="WIyWlLk6GJQsqaUBKTNV-1" source="bMcUbnMxHkguOas_Q9mU-15" target="bMcUbnMxHkguOas_Q9mU-17" edge="1">
          <mxGeometry relative="1" as="geometry">
            <Array as="points">
              <mxPoint x="150" y="1750" />
              <mxPoint x="150" y="1750" />
            </Array>
          </mxGeometry>
        </mxCell>
        <mxCell id="bMcUbnMxHkguOas_Q9mU-15" value="Actor" style="shape=umlActor;verticalLabelPosition=bottom;verticalAlign=top;html=1;fontSize=13;" parent="WIyWlLk6GJQsqaUBKTNV-1" vertex="1">
          <mxGeometry x="50" y="1720" width="30" height="60" as="geometry" />
        </mxCell>
        <mxCell id="bMcUbnMxHkguOas_Q9mU-22" style="edgeStyle=elbowEdgeStyle;rounded=0;orthogonalLoop=1;jettySize=auto;html=1;elbow=vertical;curved=0;fontSize=13;" parent="WIyWlLk6GJQsqaUBKTNV-1" source="bMcUbnMxHkguOas_Q9mU-16" target="bMcUbnMxHkguOas_Q9mU-18" edge="1">
          <mxGeometry relative="1" as="geometry" />
        </mxCell>
        <mxCell id="bMcUbnMxHkguOas_Q9mU-16" value="应用激活用户" style="shape=umlLifeline;perimeter=lifelinePerimeter;whiteSpace=wrap;html=1;container=0;dropTarget=0;collapsible=0;recursiveResize=0;outlineConnect=0;portConstraint=eastwest;newEdgeStyle={&quot;edgeStyle&quot;:&quot;elbowEdgeStyle&quot;,&quot;elbow&quot;:&quot;vertical&quot;,&quot;curved&quot;:0,&quot;rounded&quot;:0};fontSize=13;" parent="WIyWlLk6GJQsqaUBKTNV-1" vertex="1">
          <mxGeometry x="150" y="1600" width="70" height="300" as="geometry" />
        </mxCell>
        <mxCell id="bMcUbnMxHkguOas_Q9mU-17" value="" style="html=1;points=[];perimeter=orthogonalPerimeter;outlineConnect=0;targetShapes=umlLifeline;portConstraint=eastwest;newEdgeStyle={&quot;edgeStyle&quot;:&quot;elbowEdgeStyle&quot;,&quot;elbow&quot;:&quot;vertical&quot;,&quot;curved&quot;:0,&quot;rounded&quot;:0};fontSize=13;" parent="bMcUbnMxHkguOas_Q9mU-16" vertex="1">
          <mxGeometry x="30" y="70" width="10" height="190" as="geometry" />
        </mxCell>
        <mxCell id="bMcUbnMxHkguOas_Q9mU-18" value="修正渠道" style="shape=umlLifeline;perimeter=lifelinePerimeter;whiteSpace=wrap;html=1;container=0;dropTarget=0;collapsible=0;recursiveResize=0;outlineConnect=0;portConstraint=eastwest;newEdgeStyle={&quot;edgeStyle&quot;:&quot;elbowEdgeStyle&quot;,&quot;elbow&quot;:&quot;vertical&quot;,&quot;curved&quot;:0,&quot;rounded&quot;:0};fontSize=13;" parent="WIyWlLk6GJQsqaUBKTNV-1" vertex="1">
          <mxGeometry x="320" y="1600" width="70" height="300" as="geometry" />
        </mxCell>
        <mxCell id="bMcUbnMxHkguOas_Q9mU-19" value="" style="html=1;points=[];perimeter=orthogonalPerimeter;outlineConnect=0;targetShapes=umlLifeline;portConstraint=eastwest;newEdgeStyle={&quot;edgeStyle&quot;:&quot;elbowEdgeStyle&quot;,&quot;elbow&quot;:&quot;vertical&quot;,&quot;curved&quot;:0,&quot;rounded&quot;:0};fontSize=13;" parent="bMcUbnMxHkguOas_Q9mU-18" vertex="1">
          <mxGeometry x="30" y="70" width="10" height="190" as="geometry" />
        </mxCell>
        <mxCell id="bMcUbnMxHkguOas_Q9mU-30" value="注册" style="shape=umlLifeline;perimeter=lifelinePerimeter;whiteSpace=wrap;html=1;container=0;dropTarget=0;collapsible=0;recursiveResize=0;outlineConnect=0;portConstraint=eastwest;newEdgeStyle={&quot;edgeStyle&quot;:&quot;elbowEdgeStyle&quot;,&quot;elbow&quot;:&quot;vertical&quot;,&quot;curved&quot;:0,&quot;rounded&quot;:0};fontSize=13;" parent="WIyWlLk6GJQsqaUBKTNV-1" vertex="1">
          <mxGeometry x="150" y="1940" width="70" height="300" as="geometry" />
        </mxCell>
        <mxCell id="bMcUbnMxHkguOas_Q9mU-31" value="" style="html=1;points=[];perimeter=orthogonalPerimeter;outlineConnect=0;targetShapes=umlLifeline;portConstraint=eastwest;newEdgeStyle={&quot;edgeStyle&quot;:&quot;elbowEdgeStyle&quot;,&quot;elbow&quot;:&quot;vertical&quot;,&quot;curved&quot;:0,&quot;rounded&quot;:0};fontSize=13;" parent="bMcUbnMxHkguOas_Q9mU-30" vertex="1">
          <mxGeometry x="30" y="70" width="10" height="190" as="geometry" />
        </mxCell>
        <mxCell id="bMcUbnMxHkguOas_Q9mU-32" style="edgeStyle=elbowEdgeStyle;rounded=0;orthogonalLoop=1;jettySize=auto;html=1;elbow=vertical;curved=0;fontSize=13;" parent="WIyWlLk6GJQsqaUBKTNV-1" source="bMcUbnMxHkguOas_Q9mU-33" target="bMcUbnMxHkguOas_Q9mU-36" edge="1">
          <mxGeometry relative="1" as="geometry" />
        </mxCell>
        <mxCell id="bMcUbnMxHkguOas_Q9mU-33" value="匹配渠道" style="shape=umlLifeline;perimeter=lifelinePerimeter;whiteSpace=wrap;html=1;container=0;dropTarget=0;collapsible=0;recursiveResize=0;outlineConnect=0;portConstraint=eastwest;newEdgeStyle={&quot;edgeStyle&quot;:&quot;elbowEdgeStyle&quot;,&quot;elbow&quot;:&quot;vertical&quot;,&quot;curved&quot;:0,&quot;rounded&quot;:0};fontSize=13;" parent="WIyWlLk6GJQsqaUBKTNV-1" vertex="1">
          <mxGeometry x="310" y="1940" width="70" height="300" as="geometry" />
        </mxCell>
        <mxCell id="bMcUbnMxHkguOas_Q9mU-34" value="" style="html=1;points=[];perimeter=orthogonalPerimeter;outlineConnect=0;targetShapes=umlLifeline;portConstraint=eastwest;newEdgeStyle={&quot;edgeStyle&quot;:&quot;elbowEdgeStyle&quot;,&quot;elbow&quot;:&quot;vertical&quot;,&quot;curved&quot;:0,&quot;rounded&quot;:0};fontSize=13;" parent="bMcUbnMxHkguOas_Q9mU-33" vertex="1">
          <mxGeometry x="30" y="70" width="10" height="190" as="geometry" />
        </mxCell>
        <mxCell id="bMcUbnMxHkguOas_Q9mU-35" style="edgeStyle=elbowEdgeStyle;rounded=0;orthogonalLoop=1;jettySize=auto;html=1;elbow=vertical;curved=0;fontSize=13;" parent="WIyWlLk6GJQsqaUBKTNV-1" source="bMcUbnMxHkguOas_Q9mU-31" target="bMcUbnMxHkguOas_Q9mU-33" edge="1">
          <mxGeometry relative="1" as="geometry">
            <Array as="points">
              <mxPoint x="270" y="2090" />
            </Array>
          </mxGeometry>
        </mxCell>
        <mxCell id="bMcUbnMxHkguOas_Q9mU-42" style="edgeStyle=elbowEdgeStyle;rounded=0;orthogonalLoop=1;jettySize=auto;html=1;elbow=vertical;curved=0;fontSize=13;" parent="WIyWlLk6GJQsqaUBKTNV-1" source="bMcUbnMxHkguOas_Q9mU-36" target="bMcUbnMxHkguOas_Q9mU-40" edge="1">
          <mxGeometry relative="1" as="geometry" />
        </mxCell>
        <mxCell id="bMcUbnMxHkguOas_Q9mU-36" value="扣量逻辑" style="shape=umlLifeline;perimeter=lifelinePerimeter;whiteSpace=wrap;html=1;container=0;dropTarget=0;collapsible=0;recursiveResize=0;outlineConnect=0;portConstraint=eastwest;newEdgeStyle={&quot;edgeStyle&quot;:&quot;elbowEdgeStyle&quot;,&quot;elbow&quot;:&quot;vertical&quot;,&quot;curved&quot;:0,&quot;rounded&quot;:0};fontSize=13;" parent="WIyWlLk6GJQsqaUBKTNV-1" vertex="1">
          <mxGeometry x="460" y="1940" width="70" height="300" as="geometry" />
        </mxCell>
        <mxCell id="bMcUbnMxHkguOas_Q9mU-37" value="" style="html=1;points=[];perimeter=orthogonalPerimeter;outlineConnect=0;targetShapes=umlLifeline;portConstraint=eastwest;newEdgeStyle={&quot;edgeStyle&quot;:&quot;elbowEdgeStyle&quot;,&quot;elbow&quot;:&quot;vertical&quot;,&quot;curved&quot;:0,&quot;rounded&quot;:0};fontSize=13;" parent="bMcUbnMxHkguOas_Q9mU-36" vertex="1">
          <mxGeometry x="30" y="70" width="10" height="190" as="geometry" />
        </mxCell>
        <mxCell id="bMcUbnMxHkguOas_Q9mU-39" style="edgeStyle=orthogonalEdgeStyle;rounded=0;orthogonalLoop=1;jettySize=auto;html=1;fontSize=13;" parent="WIyWlLk6GJQsqaUBKTNV-1" source="bMcUbnMxHkguOas_Q9mU-38" target="bMcUbnMxHkguOas_Q9mU-30" edge="1">
          <mxGeometry relative="1" as="geometry" />
        </mxCell>
        <mxCell id="bMcUbnMxHkguOas_Q9mU-38" value="Actor" style="shape=umlActor;verticalLabelPosition=bottom;verticalAlign=top;html=1;fontSize=13;" parent="WIyWlLk6GJQsqaUBKTNV-1" vertex="1">
          <mxGeometry x="60" y="2060" width="30" height="60" as="geometry" />
        </mxCell>
        <mxCell id="bMcUbnMxHkguOas_Q9mU-40" value="回传操作" style="shape=umlLifeline;perimeter=lifelinePerimeter;whiteSpace=wrap;html=1;container=0;dropTarget=0;collapsible=0;recursiveResize=0;outlineConnect=0;portConstraint=eastwest;newEdgeStyle={&quot;edgeStyle&quot;:&quot;elbowEdgeStyle&quot;,&quot;elbow&quot;:&quot;vertical&quot;,&quot;curved&quot;:0,&quot;rounded&quot;:0};fontSize=13;" parent="WIyWlLk6GJQsqaUBKTNV-1" vertex="1">
          <mxGeometry x="610" y="1940" width="70" height="300" as="geometry" />
        </mxCell>
        <mxCell id="bMcUbnMxHkguOas_Q9mU-41" value="" style="html=1;points=[];perimeter=orthogonalPerimeter;outlineConnect=0;targetShapes=umlLifeline;portConstraint=eastwest;newEdgeStyle={&quot;edgeStyle&quot;:&quot;elbowEdgeStyle&quot;,&quot;elbow&quot;:&quot;vertical&quot;,&quot;curved&quot;:0,&quot;rounded&quot;:0};fontSize=13;" parent="bMcUbnMxHkguOas_Q9mU-40" vertex="1">
          <mxGeometry x="30" y="70" width="10" height="190" as="geometry" />
        </mxCell>
        <mxCell id="4QKDmdhK9SBUTv6NPaYf-16" value="Y" style="edgeStyle=orthogonalEdgeStyle;rounded=0;orthogonalLoop=1;jettySize=auto;html=1;" parent="WIyWlLk6GJQsqaUBKTNV-1" source="LsA4C3_EpaB0UkdEDKsb-0" target="4QKDmdhK9SBUTv6NPaYf-15" edge="1">
          <mxGeometry relative="1" as="geometry" />
        </mxCell>
        <mxCell id="AGhLPczxl6bGRzA4AMZ3-9" value="N" style="edgeStyle=orthogonalEdgeStyle;rounded=0;orthogonalLoop=1;jettySize=auto;html=1;entryX=0;entryY=0.5;entryDx=0;entryDy=0;entryPerimeter=0;" edge="1" parent="WIyWlLk6GJQsqaUBKTNV-1" source="LsA4C3_EpaB0UkdEDKsb-0" target="AGhLPczxl6bGRzA4AMZ3-8">
          <mxGeometry relative="1" as="geometry" />
        </mxCell>
        <mxCell id="LsA4C3_EpaB0UkdEDKsb-0" value="存在关键信息，如id等" style="rhombus;whiteSpace=wrap;html=1;fillColor=#f8cecc;strokeColor=#b85450;" parent="WIyWlLk6GJQsqaUBKTNV-1" vertex="1">
          <mxGeometry x="150" y="135" width="100" height="80" as="geometry" />
        </mxCell>
        <mxCell id="4QKDmdhK9SBUTv6NPaYf-10" style="edgeStyle=orthogonalEdgeStyle;rounded=0;orthogonalLoop=1;jettySize=auto;html=1;entryX=0.5;entryY=0;entryDx=0;entryDy=0;" parent="WIyWlLk6GJQsqaUBKTNV-1" source="AGhLPczxl6bGRzA4AMZ3-1" target="LsA4C3_EpaB0UkdEDKsb-0" edge="1">
          <mxGeometry relative="1" as="geometry">
            <mxPoint x="200" y="105" as="sourcePoint" />
          </mxGeometry>
        </mxCell>
        <mxCell id="4QKDmdhK9SBUTv6NPaYf-14" value="Y" style="edgeStyle=orthogonalEdgeStyle;rounded=0;orthogonalLoop=1;jettySize=auto;html=1;exitX=0.5;exitY=1;exitDx=0;exitDy=0;" parent="WIyWlLk6GJQsqaUBKTNV-1" target="AGhLPczxl6bGRzA4AMZ3-5" edge="1" source="4QKDmdhK9SBUTv6NPaYf-15">
          <mxGeometry relative="1" as="geometry">
            <mxPoint x="200" y="385" as="sourcePoint" />
            <mxPoint x="270" y="405" as="targetPoint" />
          </mxGeometry>
        </mxCell>
        <mxCell id="AGhLPczxl6bGRzA4AMZ3-13" style="edgeStyle=orthogonalEdgeStyle;rounded=0;orthogonalLoop=1;jettySize=auto;html=1;exitX=0.5;exitY=1;exitDx=0;exitDy=0;" edge="1" parent="WIyWlLk6GJQsqaUBKTNV-1" source="4QKDmdhK9SBUTv6NPaYf-13" target="AGhLPczxl6bGRzA4AMZ3-12">
          <mxGeometry relative="1" as="geometry" />
        </mxCell>
        <mxCell id="4QKDmdhK9SBUTv6NPaYf-13" value="保存渠道记录" style="whiteSpace=wrap;html=1;fillColor=#dae8fc;strokeColor=#6c8ebf;" parent="WIyWlLk6GJQsqaUBKTNV-1" vertex="1">
          <mxGeometry x="50" y="405" width="120" height="60" as="geometry" />
        </mxCell>
        <mxCell id="AGhLPczxl6bGRzA4AMZ3-4" value="Y" style="edgeStyle=orthogonalEdgeStyle;rounded=0;orthogonalLoop=1;jettySize=auto;html=1;entryX=0.5;entryY=0;entryDx=0;entryDy=0;" edge="1" parent="WIyWlLk6GJQsqaUBKTNV-1" source="4QKDmdhK9SBUTv6NPaYf-15" target="4QKDmdhK9SBUTv6NPaYf-13">
          <mxGeometry relative="1" as="geometry" />
        </mxCell>
        <mxCell id="AGhLPczxl6bGRzA4AMZ3-11" value="N" style="edgeStyle=orthogonalEdgeStyle;rounded=0;orthogonalLoop=1;jettySize=auto;html=1;entryX=0;entryY=0.5;entryDx=0;entryDy=0;entryPerimeter=0;" edge="1" parent="WIyWlLk6GJQsqaUBKTNV-1" source="4QKDmdhK9SBUTv6NPaYf-15" target="AGhLPczxl6bGRzA4AMZ3-10">
          <mxGeometry relative="1" as="geometry" />
        </mxCell>
        <mxCell id="4QKDmdhK9SBUTv6NPaYf-15" value="渠道通过脚本匹配" style="rhombus;whiteSpace=wrap;html=1;fillColor=#f8cecc;strokeColor=#b85450;" parent="WIyWlLk6GJQsqaUBKTNV-1" vertex="1">
          <mxGeometry x="150" y="265" width="100" height="80" as="geometry" />
        </mxCell>
        <mxCell id="AGhLPczxl6bGRzA4AMZ3-1" value="点击推广页广告" style="strokeWidth=2;html=1;shape=mxgraph.flowchart.terminator;whiteSpace=wrap;fillColor=#d5e8d4;strokeColor=#82b366;" vertex="1" parent="WIyWlLk6GJQsqaUBKTNV-1">
          <mxGeometry x="150" y="25" width="100" height="60" as="geometry" />
        </mxCell>
        <mxCell id="AGhLPczxl6bGRzA4AMZ3-5" value="布隆过滤器保存归因信息" style="whiteSpace=wrap;html=1;fillColor=#dae8fc;strokeColor=#6c8ebf;" vertex="1" parent="WIyWlLk6GJQsqaUBKTNV-1">
          <mxGeometry x="220" y="405" width="120" height="60" as="geometry" />
        </mxCell>
        <mxCell id="AGhLPczxl6bGRzA4AMZ3-8" value="结束" style="strokeWidth=2;html=1;shape=mxgraph.flowchart.terminator;whiteSpace=wrap;fillColor=#d5e8d4;strokeColor=#82b366;" vertex="1" parent="WIyWlLk6GJQsqaUBKTNV-1">
          <mxGeometry x="350" y="145" width="100" height="60" as="geometry" />
        </mxCell>
        <mxCell id="AGhLPczxl6bGRzA4AMZ3-10" value="结束" style="strokeWidth=2;html=1;shape=mxgraph.flowchart.terminator;whiteSpace=wrap;fillColor=#d5e8d4;strokeColor=#82b366;" vertex="1" parent="WIyWlLk6GJQsqaUBKTNV-1">
          <mxGeometry x="360" y="275" width="100" height="60" as="geometry" />
        </mxCell>
        <mxCell id="AGhLPczxl6bGRzA4AMZ3-15" value="" style="edgeStyle=orthogonalEdgeStyle;rounded=0;orthogonalLoop=1;jettySize=auto;html=1;" edge="1" parent="WIyWlLk6GJQsqaUBKTNV-1" source="AGhLPczxl6bGRzA4AMZ3-12" target="AGhLPczxl6bGRzA4AMZ3-17">
          <mxGeometry relative="1" as="geometry">
            <mxPoint x="230" y="555" as="targetPoint" />
          </mxGeometry>
        </mxCell>
        <mxCell id="AGhLPczxl6bGRzA4AMZ3-12" value="数据库" style="strokeWidth=2;html=1;shape=mxgraph.flowchart.direct_data;whiteSpace=wrap;fillColor=#fff2cc;strokeColor=#d6b656;" vertex="1" parent="WIyWlLk6GJQsqaUBKTNV-1">
          <mxGeometry x="60" y="525" width="100" height="60" as="geometry" />
        </mxCell>
        <mxCell id="AGhLPczxl6bGRzA4AMZ3-19" style="edgeStyle=orthogonalEdgeStyle;rounded=0;orthogonalLoop=1;jettySize=auto;html=1;" edge="1" parent="WIyWlLk6GJQsqaUBKTNV-1" source="AGhLPczxl6bGRzA4AMZ3-17" target="AGhLPczxl6bGRzA4AMZ3-18">
          <mxGeometry relative="1" as="geometry" />
        </mxCell>
        <mxCell id="AGhLPczxl6bGRzA4AMZ3-17" value="Job定时清除渠道记录" style="whiteSpace=wrap;html=1;fillColor=#dae8fc;strokeColor=#6c8ebf;" vertex="1" parent="WIyWlLk6GJQsqaUBKTNV-1">
          <mxGeometry x="220" y="525" width="120" height="60" as="geometry" />
        </mxCell>
        <mxCell id="AGhLPczxl6bGRzA4AMZ3-18" value="结束" style="strokeWidth=2;html=1;shape=mxgraph.flowchart.terminator;whiteSpace=wrap;fillColor=#d5e8d4;strokeColor=#82b366;" vertex="1" parent="WIyWlLk6GJQsqaUBKTNV-1">
          <mxGeometry x="410" y="525" width="100" height="60" as="geometry" />
        </mxCell>
        <mxCell id="AGhLPczxl6bGRzA4AMZ3-22" value="" style="edgeStyle=orthogonalEdgeStyle;rounded=0;orthogonalLoop=1;jettySize=auto;html=1;" edge="1" parent="WIyWlLk6GJQsqaUBKTNV-1" source="AGhLPczxl6bGRzA4AMZ3-20">
          <mxGeometry relative="1" as="geometry">
            <mxPoint x="767.5" y="135" as="targetPoint" />
          </mxGeometry>
        </mxCell>
        <mxCell id="AGhLPczxl6bGRzA4AMZ3-20" value="开始" style="strokeWidth=2;html=1;shape=mxgraph.flowchart.terminator;whiteSpace=wrap;fillColor=#d5e8d4;strokeColor=#82b366;" vertex="1" parent="WIyWlLk6GJQsqaUBKTNV-1">
          <mxGeometry x="717.5" y="25" width="100" height="60" as="geometry" />
        </mxCell>
        <mxCell id="AGhLPczxl6bGRzA4AMZ3-25" value="H5" style="edgeStyle=orthogonalEdgeStyle;rounded=0;orthogonalLoop=1;jettySize=auto;html=1;entryX=0;entryY=0.5;entryDx=0;entryDy=0;entryPerimeter=0;" edge="1" parent="WIyWlLk6GJQsqaUBKTNV-1" source="AGhLPczxl6bGRzA4AMZ3-23" target="AGhLPczxl6bGRzA4AMZ3-24">
          <mxGeometry relative="1" as="geometry" />
        </mxCell>
        <mxCell id="AGhLPczxl6bGRzA4AMZ3-28" value="APP" style="edgeStyle=orthogonalEdgeStyle;rounded=0;orthogonalLoop=1;jettySize=auto;html=1;" edge="1" parent="WIyWlLk6GJQsqaUBKTNV-1" source="AGhLPczxl6bGRzA4AMZ3-23" target="AGhLPczxl6bGRzA4AMZ3-29">
          <mxGeometry relative="1" as="geometry">
            <mxPoint x="767.5" y="295" as="targetPoint" />
          </mxGeometry>
        </mxCell>
        <mxCell id="AGhLPczxl6bGRzA4AMZ3-23" value="修正渠道" style="rhombus;whiteSpace=wrap;html=1;fillColor=#f8cecc;strokeColor=#b85450;" vertex="1" parent="WIyWlLk6GJQsqaUBKTNV-1">
          <mxGeometry x="717.5" y="135" width="100" height="80" as="geometry" />
        </mxCell>
        <mxCell id="AGhLPczxl6bGRzA4AMZ3-24" value="结束" style="strokeWidth=2;html=1;shape=mxgraph.flowchart.terminator;whiteSpace=wrap;fillColor=#d5e8d4;strokeColor=#82b366;" vertex="1" parent="WIyWlLk6GJQsqaUBKTNV-1">
          <mxGeometry x="930" y="145" width="100" height="60" as="geometry" />
        </mxCell>
        <mxCell id="AGhLPczxl6bGRzA4AMZ3-33" value="官方渠道" style="edgeStyle=orthogonalEdgeStyle;rounded=0;orthogonalLoop=1;jettySize=auto;html=1;entryX=0.5;entryY=0;entryDx=0;entryDy=0;" edge="1" parent="WIyWlLk6GJQsqaUBKTNV-1" source="AGhLPczxl6bGRzA4AMZ3-29" target="AGhLPczxl6bGRzA4AMZ3-31">
          <mxGeometry relative="1" as="geometry">
            <Array as="points">
              <mxPoint x="768" y="400" />
              <mxPoint x="658" y="400" />
            </Array>
          </mxGeometry>
        </mxCell>
        <mxCell id="AGhLPczxl6bGRzA4AMZ3-35" value="非官方渠道" style="edgeStyle=orthogonalEdgeStyle;rounded=0;orthogonalLoop=1;jettySize=auto;html=1;entryX=0.5;entryY=0;entryDx=0;entryDy=0;" edge="1" parent="WIyWlLk6GJQsqaUBKTNV-1" source="AGhLPczxl6bGRzA4AMZ3-29" target="AGhLPczxl6bGRzA4AMZ3-32">
          <mxGeometry relative="1" as="geometry">
            <Array as="points">
              <mxPoint x="768" y="400" />
              <mxPoint x="900" y="400" />
            </Array>
          </mxGeometry>
        </mxCell>
        <mxCell id="AGhLPczxl6bGRzA4AMZ3-29" value="脚本判断渠道类型" style="rhombus;whiteSpace=wrap;html=1;fillColor=#f8cecc;strokeColor=#b85450;" vertex="1" parent="WIyWlLk6GJQsqaUBKTNV-1">
          <mxGeometry x="717.5" y="275" width="100" height="80" as="geometry" />
        </mxCell>
        <mxCell id="AGhLPczxl6bGRzA4AMZ3-31" value="全量渠道匹配" style="whiteSpace=wrap;html=1;fillColor=#dae8fc;strokeColor=#6c8ebf;" vertex="1" parent="WIyWlLk6GJQsqaUBKTNV-1">
          <mxGeometry x="597.5" y="440" width="120" height="60" as="geometry" />
        </mxCell>
        <mxCell id="AGhLPczxl6bGRzA4AMZ3-32" value="指定渠道匹配" style="whiteSpace=wrap;html=1;fillColor=#dae8fc;strokeColor=#6c8ebf;" vertex="1" parent="WIyWlLk6GJQsqaUBKTNV-1">
          <mxGeometry x="840" y="440" width="120" height="60" as="geometry" />
        </mxCell>
        <mxCell id="AGhLPczxl6bGRzA4AMZ3-38" style="edgeStyle=orthogonalEdgeStyle;rounded=0;orthogonalLoop=1;jettySize=auto;html=1;entryX=0.5;entryY=0;entryDx=0;entryDy=0;" edge="1" parent="WIyWlLk6GJQsqaUBKTNV-1" source="AGhLPczxl6bGRzA4AMZ3-37" target="AGhLPczxl6bGRzA4AMZ3-39">
          <mxGeometry relative="1" as="geometry">
            <mxPoint x="310" y="790" as="targetPoint" />
          </mxGeometry>
        </mxCell>
        <mxCell id="AGhLPczxl6bGRzA4AMZ3-37" value="开始" style="strokeWidth=2;html=1;shape=mxgraph.flowchart.terminator;whiteSpace=wrap;fillColor=#d5e8d4;strokeColor=#82b366;" vertex="1" parent="WIyWlLk6GJQsqaUBKTNV-1">
          <mxGeometry x="260" y="680" width="100" height="60" as="geometry" />
        </mxCell>
        <mxCell id="AGhLPczxl6bGRzA4AMZ3-44" value="Y" style="edgeStyle=orthogonalEdgeStyle;rounded=0;orthogonalLoop=1;jettySize=auto;html=1;entryX=0.5;entryY=0;entryDx=0;entryDy=0;" edge="1" parent="WIyWlLk6GJQsqaUBKTNV-1" source="AGhLPczxl6bGRzA4AMZ3-39" target="AGhLPczxl6bGRzA4AMZ3-42">
          <mxGeometry relative="1" as="geometry" />
        </mxCell>
        <mxCell id="AGhLPczxl6bGRzA4AMZ3-53" value="N" style="edgeStyle=orthogonalEdgeStyle;rounded=0;orthogonalLoop=1;jettySize=auto;html=1;entryX=0;entryY=0.5;entryDx=0;entryDy=0;entryPerimeter=0;" edge="1" parent="WIyWlLk6GJQsqaUBKTNV-1" source="AGhLPczxl6bGRzA4AMZ3-39" target="AGhLPczxl6bGRzA4AMZ3-50">
          <mxGeometry relative="1" as="geometry" />
        </mxCell>
        <mxCell id="AGhLPczxl6bGRzA4AMZ3-39" value="时间判断、扣量逻辑判断" style="rhombus;whiteSpace=wrap;html=1;fillColor=#f8cecc;strokeColor=#b85450;" vertex="1" parent="WIyWlLk6GJQsqaUBKTNV-1">
          <mxGeometry x="260" y="790" width="100" height="80" as="geometry" />
        </mxCell>
        <mxCell id="AGhLPczxl6bGRzA4AMZ3-46" value="Y" style="edgeStyle=orthogonalEdgeStyle;rounded=0;orthogonalLoop=1;jettySize=auto;html=1;entryX=0.5;entryY=0;entryDx=0;entryDy=0;" edge="1" parent="WIyWlLk6GJQsqaUBKTNV-1" source="AGhLPczxl6bGRzA4AMZ3-42" target="AGhLPczxl6bGRzA4AMZ3-47">
          <mxGeometry relative="1" as="geometry">
            <mxPoint x="310" y="1090" as="targetPoint" />
          </mxGeometry>
        </mxCell>
        <mxCell id="AGhLPczxl6bGRzA4AMZ3-54" value="N" style="edgeStyle=orthogonalEdgeStyle;rounded=0;orthogonalLoop=1;jettySize=auto;html=1;entryX=0;entryY=0.5;entryDx=0;entryDy=0;entryPerimeter=0;" edge="1" parent="WIyWlLk6GJQsqaUBKTNV-1" source="AGhLPczxl6bGRzA4AMZ3-42" target="AGhLPczxl6bGRzA4AMZ3-52">
          <mxGeometry relative="1" as="geometry" />
        </mxCell>
        <mxCell id="AGhLPczxl6bGRzA4AMZ3-42" value="布隆归因匹配" style="rhombus;whiteSpace=wrap;html=1;fillColor=#f8cecc;strokeColor=#b85450;" vertex="1" parent="WIyWlLk6GJQsqaUBKTNV-1">
          <mxGeometry x="260" y="910" width="100" height="80" as="geometry" />
        </mxCell>
        <mxCell id="AGhLPczxl6bGRzA4AMZ3-49" value="Y" style="edgeStyle=orthogonalEdgeStyle;rounded=0;orthogonalLoop=1;jettySize=auto;html=1;entryX=0.5;entryY=0;entryDx=0;entryDy=0;" edge="1" parent="WIyWlLk6GJQsqaUBKTNV-1" source="AGhLPczxl6bGRzA4AMZ3-47" target="AGhLPczxl6bGRzA4AMZ3-48">
          <mxGeometry relative="1" as="geometry" />
        </mxCell>
        <mxCell id="AGhLPczxl6bGRzA4AMZ3-55" value="N" style="edgeStyle=orthogonalEdgeStyle;rounded=0;orthogonalLoop=1;jettySize=auto;html=1;entryX=0;entryY=0.5;entryDx=0;entryDy=0;entryPerimeter=0;" edge="1" parent="WIyWlLk6GJQsqaUBKTNV-1" source="AGhLPczxl6bGRzA4AMZ3-47" target="AGhLPczxl6bGRzA4AMZ3-51">
          <mxGeometry relative="1" as="geometry" />
        </mxCell>
        <mxCell id="AGhLPczxl6bGRzA4AMZ3-47" value="是否已经回传" style="rhombus;whiteSpace=wrap;html=1;fillColor=#f8cecc;strokeColor=#b85450;" vertex="1" parent="WIyWlLk6GJQsqaUBKTNV-1">
          <mxGeometry x="260" y="1020" width="100" height="80" as="geometry" />
        </mxCell>
        <mxCell id="AGhLPczxl6bGRzA4AMZ3-63" style="edgeStyle=orthogonalEdgeStyle;rounded=0;orthogonalLoop=1;jettySize=auto;html=1;" edge="1" parent="WIyWlLk6GJQsqaUBKTNV-1" source="AGhLPczxl6bGRzA4AMZ3-48" target="AGhLPczxl6bGRzA4AMZ3-62">
          <mxGeometry relative="1" as="geometry" />
        </mxCell>
        <mxCell id="AGhLPczxl6bGRzA4AMZ3-48" value="回传逻辑" style="whiteSpace=wrap;html=1;fillColor=#dae8fc;strokeColor=#6c8ebf;" vertex="1" parent="WIyWlLk6GJQsqaUBKTNV-1">
          <mxGeometry x="250" y="1160" width="120" height="60" as="geometry" />
        </mxCell>
        <mxCell id="AGhLPczxl6bGRzA4AMZ3-50" value="结束" style="strokeWidth=2;html=1;shape=mxgraph.flowchart.terminator;whiteSpace=wrap;fillColor=#d5e8d4;strokeColor=#82b366;" vertex="1" parent="WIyWlLk6GJQsqaUBKTNV-1">
          <mxGeometry x="447.5" y="800" width="100" height="60" as="geometry" />
        </mxCell>
        <mxCell id="AGhLPczxl6bGRzA4AMZ3-51" value="结束" style="strokeWidth=2;html=1;shape=mxgraph.flowchart.terminator;whiteSpace=wrap;fillColor=#d5e8d4;strokeColor=#82b366;" vertex="1" parent="WIyWlLk6GJQsqaUBKTNV-1">
          <mxGeometry x="447.5" y="1030" width="100" height="60" as="geometry" />
        </mxCell>
        <mxCell id="AGhLPczxl6bGRzA4AMZ3-52" value="结束" style="strokeWidth=2;html=1;shape=mxgraph.flowchart.terminator;whiteSpace=wrap;fillColor=#d5e8d4;strokeColor=#82b366;" vertex="1" parent="WIyWlLk6GJQsqaUBKTNV-1">
          <mxGeometry x="447.5" y="920" width="100" height="60" as="geometry" />
        </mxCell>
        <mxCell id="AGhLPczxl6bGRzA4AMZ3-59" style="edgeStyle=orthogonalEdgeStyle;rounded=0;orthogonalLoop=1;jettySize=auto;html=1;entryX=0;entryY=0.5;entryDx=0;entryDy=0;" edge="1" parent="WIyWlLk6GJQsqaUBKTNV-1" source="AGhLPczxl6bGRzA4AMZ3-58" target="AGhLPczxl6bGRzA4AMZ3-39">
          <mxGeometry relative="1" as="geometry" />
        </mxCell>
        <mxCell id="AGhLPczxl6bGRzA4AMZ3-58" value="时间、扣量配置化" style="whiteSpace=wrap;html=1;fillColor=#dae8fc;strokeColor=#6c8ebf;" vertex="1" parent="WIyWlLk6GJQsqaUBKTNV-1">
          <mxGeometry x="60" y="800" width="120" height="60" as="geometry" />
        </mxCell>
        <mxCell id="AGhLPczxl6bGRzA4AMZ3-61" style="edgeStyle=orthogonalEdgeStyle;rounded=0;orthogonalLoop=1;jettySize=auto;html=1;entryX=0;entryY=0.5;entryDx=0;entryDy=0;" edge="1" parent="WIyWlLk6GJQsqaUBKTNV-1" source="AGhLPczxl6bGRzA4AMZ3-60" target="AGhLPczxl6bGRzA4AMZ3-47">
          <mxGeometry relative="1" as="geometry" />
        </mxCell>
        <mxCell id="AGhLPczxl6bGRzA4AMZ3-60" value="多次回传配置、回传事件配置化、" style="whiteSpace=wrap;html=1;fillColor=#dae8fc;strokeColor=#6c8ebf;" vertex="1" parent="WIyWlLk6GJQsqaUBKTNV-1">
          <mxGeometry x="60" y="1030" width="120" height="60" as="geometry" />
        </mxCell>
        <mxCell id="AGhLPczxl6bGRzA4AMZ3-62" value="结束" style="strokeWidth=2;html=1;shape=mxgraph.flowchart.terminator;whiteSpace=wrap;fillColor=#d5e8d4;strokeColor=#82b366;" vertex="1" parent="WIyWlLk6GJQsqaUBKTNV-1">
          <mxGeometry x="260" y="1280" width="100" height="60" as="geometry" />
        </mxCell>
      </root>
    </mxGraphModel>
  </diagram>
</mxfile>
